<svg width="172" height="132" viewBox="0 0 172 132" fill="none" xmlns="http://www.w3.org/2000/svg">
<path fill-rule="evenodd" clip-rule="evenodd" d="M89.5469 18.4785H123.731V52.6657L89.5469 18.4785Z" fill="#EB1923"/>
<path fill-rule="evenodd" clip-rule="evenodd" d="M123.672 56.8552C122.626 75.2239 107.913 89.9371 89.5471 90.9823V56.8552H123.672ZM85.3534 90.9823C66.9874 89.9371 52.2742 75.2239 51.229 56.8552H85.3534V90.9823ZM51.229 52.6642C52.2742 34.2981 66.9874 19.5849 85.3534 18.5371V52.6642H51.229Z" fill="#1E54AE"/>
<path fill-rule="evenodd" clip-rule="evenodd" d="M56.9854 89.993C56.3714 90.6409 55.5039 91.0433 54.5397 91.0433C52.6768 91.0433 51.1665 89.5331 51.1665 87.6701C51.1665 86.7112 51.5689 85.8437 52.2143 85.2296L56.4472 80.9941L61.2157 85.7627L56.9854 89.993Z" fill="#1E54AE"/>
<path d="M37.5433 118.548H40.1045V109.618H33.0308V112.25H37.0735V112.343C37.0735 112.814 36.9671 113.272 36.7638 113.722C36.5597 114.173 36.2703 114.576 35.8902 114.944C35.5101 115.308 35.0561 115.599 34.5273 115.818C33.9942 116.033 33.4029 116.147 32.7492 116.15C32.0242 116.147 31.3741 115.998 30.7951 115.704C30.2188 115.41 29.7253 115 29.3144 114.463C28.907 113.93 28.5938 113.303 28.3783 112.583C28.1592 111.858 28.0492 111.067 28.0492 110.205C28.0492 109.367 28.1469 108.584 28.3431 107.863C28.5428 107.143 28.8367 106.512 29.2317 105.967C29.6276 105.427 30.1212 105.004 30.7159 104.699C31.3116 104.397 32.0049 104.24 32.7958 104.237C33.5164 104.24 34.1358 104.362 34.6567 104.6C35.1731 104.839 35.5928 105.168 35.9139 105.587C36.2307 106.007 36.4541 106.488 36.5799 107.033H39.9162C39.7834 106.207 39.5291 105.451 39.1605 104.765C38.7927 104.084 38.307 103.492 37.7035 102.991C37.1043 102.489 36.3873 102.106 35.5576 101.831C34.727 101.558 33.783 101.42 32.7255 101.416C31.5975 101.42 30.5875 101.585 29.6901 101.914C28.7891 102.243 28.0017 102.716 27.3207 103.344C26.733 103.887 26.2315 104.51 25.8242 105.219C25.4168 105.929 25.1036 106.704 24.8924 107.542C24.6804 108.384 24.5713 109.269 24.5713 110.205C24.5748 111.479 24.7666 112.645 25.1432 113.699C25.5233 114.757 26.0591 115.677 26.7568 116.457C27.4501 117.228 28.2876 117.823 29.2748 118.25C30.2584 118.677 31.3864 118.893 32.6551 118.9C33.3211 118.904 33.9396 118.821 34.5115 118.653C35.0834 118.485 35.6086 118.207 36.0864 117.823C36.5641 117.443 36.9943 116.93 37.3788 116.292H37.4255L37.5433 118.548ZM43.183 118.548H46.5905V111.803H49.34C50.394 111.808 51.1885 112.057 51.7252 112.548C52.2619 113.041 52.5636 113.75 52.6296 114.671C52.6657 115.129 52.6965 115.575 52.7282 116.014C52.7554 116.452 52.7906 116.852 52.8302 117.216C52.8689 117.58 52.9235 117.882 52.9868 118.117C53.0528 118.352 53.1355 118.497 53.2411 118.548H56.5079V118.383C56.3196 118.294 56.1867 118.046 56.1084 117.643C56.0336 117.243 55.9791 116.727 55.9439 116.092C55.9043 115.454 55.8498 114.741 55.7794 113.942C55.709 113.265 55.5717 112.701 55.3676 112.254C55.16 111.808 54.8784 111.447 54.5256 111.18C54.1693 110.91 53.7347 110.703 53.2173 110.558V110.487C53.9379 110.287 54.5221 109.998 54.9761 109.61C55.4301 109.226 55.7635 108.764 55.9791 108.223C56.1946 107.683 56.3002 107.084 56.2958 106.422C56.2923 105.721 56.163 105.082 55.9078 104.51C55.65 103.938 55.2858 103.445 54.8116 103.034C54.3338 102.622 53.7664 102.306 53.1038 102.082C52.4422 101.859 51.7058 101.749 50.8911 101.745H43.183V118.548ZM46.5905 104.495H50.3034C50.9069 104.499 51.4084 104.6 51.8035 104.808C52.1994 105.012 52.4968 105.29 52.6886 105.646C52.8848 106.003 52.9824 106.41 52.9824 106.868C52.9824 107.319 52.8804 107.715 52.6771 108.059C52.473 108.404 52.1642 108.674 51.7524 108.873C51.3416 109.07 50.8286 109.167 50.2092 109.172H46.5905V104.495ZM58.3168 118.548H61.7718L62.876 114.976H68.9388L70.0668 118.548H73.6151L67.6939 101.745H64.1685L58.3168 118.548ZM65.1794 107.526C65.2498 107.295 65.3281 107.036 65.4099 106.747C65.4882 106.453 65.5665 106.171 65.6369 105.897C65.7081 105.622 65.7662 105.4 65.8137 105.219C65.8603 105.039 65.8841 104.945 65.8841 104.941H65.9307C65.9307 104.945 65.9545 105.039 65.9976 105.219C66.0407 105.4 66.0953 105.622 66.1657 105.897C66.236 106.171 66.3073 106.453 66.3891 106.747C66.4674 107.036 66.5422 107.295 66.6126 107.526L68.1162 112.367H63.6749L65.1794 107.526ZM75.4953 118.548H78.6213V108.913C78.6213 108.635 78.6169 108.341 78.6054 108.028C78.5975 107.715 78.5861 107.405 78.5702 107.1C78.5579 106.793 78.543 106.515 78.5306 106.265C78.5148 106.015 78.5034 105.815 78.4954 105.666C78.484 105.513 78.4796 105.439 78.4796 105.435H78.5271C78.5271 105.439 78.5429 105.509 78.5702 105.651C78.5975 105.787 78.6327 105.975 78.6837 106.207C78.7304 106.442 78.7858 106.696 78.8483 106.978C78.9072 107.26 78.9732 107.542 79.0436 107.828C79.1148 108.114 79.1852 108.384 79.2556 108.631L82.0754 118.548H85.3422L88.2324 108.631C88.3028 108.384 88.3732 108.114 88.4436 107.828C88.5148 107.542 88.5808 107.26 88.6433 106.978C88.7022 106.696 88.7577 106.442 88.8078 106.207C88.8553 105.975 88.8905 105.787 88.9178 105.651C88.9451 105.509 88.9609 105.439 88.9609 105.435H89.0075C89.0075 105.439 89.004 105.513 88.9926 105.666C88.9847 105.815 88.9724 106.015 88.9609 106.265C88.9451 106.515 88.9292 106.793 88.9178 107.1C88.9019 107.405 88.8905 107.715 88.8826 108.028C88.8747 108.341 88.8668 108.635 88.8668 108.913V118.548H92.0394V101.745H87.1749L84.8011 110.182C84.6841 110.608 84.5741 111.036 84.4685 111.466C84.363 111.893 84.2688 112.305 84.1826 112.693C84.1008 113.08 84.026 113.425 83.9635 113.73C83.9011 114.032 83.8535 114.275 83.8184 114.447C83.7867 114.623 83.7673 114.714 83.7673 114.717H83.7207C83.7207 114.714 83.7005 114.623 83.6653 114.447C83.6301 114.275 83.5834 114.032 83.5166 113.73C83.4541 113.425 83.3758 113.08 83.2896 112.693C83.1998 112.305 83.1057 111.893 83.0001 111.466C82.8937 111.036 82.7802 110.608 82.6632 110.182L80.2894 101.745H75.4953V118.548ZM94.8592 118.548H107.291V115.704H98.2668V111.169H106.116V108.372H98.2668V104.612H107.221V101.745H94.8592V118.548ZM110.111 118.548H116.386C117.439 118.543 118.379 118.403 119.201 118.125C120.028 117.847 120.749 117.447 121.367 116.926C121.955 116.428 122.449 115.842 122.844 115.164C123.243 114.482 123.541 113.734 123.745 112.915C123.944 112.101 124.046 111.236 124.046 110.322C124.043 109.077 123.87 107.934 123.526 106.892C123.181 105.846 122.687 104.941 122.041 104.173C121.395 103.406 120.619 102.811 119.714 102.387C118.81 101.965 117.792 101.749 116.667 101.745H110.111V118.548ZM113.518 115.61V104.659H116.244C116.969 104.663 117.599 104.801 118.144 105.074C118.688 105.349 119.139 105.736 119.503 106.237C119.867 106.743 120.137 107.338 120.318 108.031C120.502 108.721 120.592 109.485 120.592 110.322C120.596 111.439 120.451 112.391 120.15 113.178C119.851 113.965 119.378 114.565 118.723 114.979C118.07 115.399 117.212 115.607 116.15 115.61H113.518ZM126.631 118.548H130.039V101.745H126.631V118.548ZM132.13 118.548H135.585L136.689 114.976H142.752L143.88 118.548H147.428L141.506 101.745H137.982L132.13 118.548ZM138.992 107.526C139.063 107.295 139.141 107.036 139.223 106.747C139.302 106.453 139.38 106.171 139.45 105.897C139.521 105.622 139.58 105.4 139.627 105.219C139.674 105.039 139.697 104.945 139.697 104.941H139.744C139.744 104.945 139.768 105.039 139.811 105.219C139.854 105.4 139.909 105.622 139.979 105.897C140.049 106.171 140.121 106.453 140.202 106.747C140.281 107.036 140.356 107.295 140.426 107.526L141.93 112.367H137.488L138.992 107.526Z" fill="#EB1923"/>
</svg>
