<svg width="16" height="17" viewBox="0 0 16 17" fill="none" xmlns="http://www.w3.org/2000/svg">
<g clip-path="url(#clip0_104_2404)">
<path d="M9.33348 16.5C9.18924 16.5 9.04888 16.4532 8.93348 16.3667L6.26682 14.3667C6.18402 14.3046 6.11682 14.224 6.07053 14.1315C6.02425 14.0389 6.00015 13.9368 6.00015 13.8333V10.0867L1.32282 4.82467C0.99063 4.44992 0.773736 3.98721 0.698203 3.49216C0.62267 2.9971 0.691713 2.49077 0.897032 2.03401C1.10235 1.57725 1.43521 1.18951 1.8556 0.917377C2.276 0.645249 2.76603 0.500316 3.26682 0.5H12.7335C13.2342 0.500587 13.7241 0.64576 14.1444 0.918071C14.5646 1.19038 14.8972 1.57825 15.1023 2.03506C15.3074 2.49187 15.3763 2.99818 15.3005 3.49316C15.2248 3.98815 15.0078 4.45073 14.6755 4.82533L10.0002 10.0867V15.8333C10.0002 16.0101 9.92991 16.1797 9.80489 16.3047C9.67986 16.4298 9.51029 16.5 9.33348 16.5ZM7.33348 13.5L8.66682 14.5V9.83333C8.66695 9.6701 8.72697 9.5126 8.83548 9.39067L13.6808 3.93933C13.8424 3.75672 13.9478 3.53136 13.9844 3.2903C14.0211 3.04924 13.9874 2.80274 13.8873 2.58037C13.7873 2.35801 13.6252 2.16924 13.4206 2.03673C13.2159 1.90421 12.9773 1.83359 12.7335 1.83333H3.26682C3.02312 1.8337 2.7847 1.90436 2.58015 2.03684C2.37561 2.16932 2.21362 2.358 2.11362 2.58023C2.01362 2.80247 1.97985 3.04884 2.01637 3.28979C2.05288 3.53074 2.15813 3.75604 2.31948 3.93867L7.16548 9.39067C7.27376 9.5127 7.33353 9.67019 7.33348 9.83333V13.5Z" fill="#374957"/>
</g>
<defs>
<clipPath id="clip0_104_2404">
<rect width="16" height="16" fill="white" transform="translate(0 0.5)"/>
</clipPath>
</defs>
</svg>
